#Comment line ignore any data following # character 
#Hierarchical Translation and Rotation (.htr) file 
[Header]	
#Header keywords are followed by a single value 
FileType HTR		#Single word string
DataType HTRS		#Translation followed by rotation and scale data
FileVersion 1		#integer
NumSegments 23		#integer
NumFrames 5		#integer
DataFrameRate 30		#integer, data frame rate in this file
EulerRotationOrder ZYX
CalibrationUnits mm
RotationUnits Degrees
GlobalAxisofGravity Y
BoneLengthAxis Y
ScaleFactor 1.00
[SegmentNames&Hierarchy]
#CHILD	PARENT
MASTER GLOBAL
weapon MASTER
arm_lock_bottom_part1 weapon
arm_lock_bottom_part2 weapon
arm_lock_bottom_part3 weapon
arm_lock_bottom_part4 weapon
arm_lock_top_part1 weapon
arm_lock_top_part2 weapon
arm_lock_top_part3 weapon
front_lower_left_part1 weapon
front_lower_right_part1 weapon
front_top_left_part weapon
front_top_right_part1 weapon
scope_part1 weapon
scope_part2 weapon
front_lower_left_part2 front_lower_left_part1
front_lower_left_part3 front_lower_left_part2
front_lower_right_part2 front_lower_right_part1
front_lower_right_part3 front_lower_right_part2
front_top_left_part2 front_top_left_part
front_top_left_part3 front_top_left_part2
front_top_right_part2 front_top_right_part1
front_top_right_part3 front_top_right_part2
[BasePosition]
#SegmentName Tx, Ty, Tz, Rx, Ry, Rz, BoneLength
MASTER 0.000000 0.000000 0.000000 -90.000000 0.000000 0.000000 10.000000 
weapon 0.000000 0.000000 0.000000 0.000000 0.000000 0.000000 10.000000 
arm_lock_bottom_part1 0.000000 0.000000 0.000000 0.000000 0.000000 0.000000 10.000000 
arm_lock_bottom_part2 0.000000 0.000000 0.000000 0.000000 0.000000 0.000000 10.000000 
arm_lock_bottom_part3 0.000000 0.000000 0.000000 0.000000 0.000000 0.000000 10.000000 
arm_lock_bottom_part4 0.000000 0.000000 0.000000 0.000000 0.000000 0.000000 10.000000 
arm_lock_top_part1 0.000000 0.000000 0.000000 0.000000 0.000000 0.000000 10.000000 
arm_lock_top_part2 0.000000 0.000000 0.000000 0.000000 0.000000 0.000000 10.000000 
arm_lock_top_part3 0.000000 0.000000 0.000000 0.000000 0.000000 0.000000 10.000000 
front_lower_left_part1 0.000000 0.000000 0.000000 0.000000 0.000000 0.000000 10.000000 
front_lower_right_part1 0.000000 0.000000 0.000000 0.000000 0.000000 0.000000 10.000000 
front_top_left_part 0.000000 0.000000 0.000000 0.000000 0.000000 0.000000 10.000000 
front_top_right_part1 0.000000 0.000000 0.000000 0.000000 0.000000 0.000000 10.000000 
scope_part1 0.000000 0.000000 0.000000 0.000000 0.000000 0.000000 10.000000 
scope_part2 0.000000 0.000000 0.000000 0.000000 0.000000 0.000000 10.000000 
front_lower_left_part2 0.000000 0.000000 0.000000 0.000000 0.000000 0.000000 10.000000 
front_lower_left_part3 0.000000 0.000000 0.000000 0.000000 0.000000 0.000000 10.000000 
front_lower_right_part2 0.000000 0.000000 0.000000 0.000000 0.000000 0.000000 10.000000 
front_lower_right_part3 0.000000 0.000000 0.000000 0.000000 0.000000 0.000000 10.000000 
front_top_left_part2 0.000000 0.000000 0.000000 0.000000 0.000000 0.000000 10.000000 
front_top_left_part3 0.000000 0.000000 0.000000 0.000000 0.000000 0.000000 10.000000 
front_top_right_part2 0.000000 0.000000 0.000000 0.000000 0.000000 0.000000 10.000000 
front_top_right_part3 0.000000 0.000000 0.000000 0.000000 0.000000 0.000000 10.000000 
#Beginning of Data. Separated by tabs
#Fr	Tx	Ty	Tz	Rx	Ry	Rz	SF
[MASTER]
29 0.000000 -0.000019 0.000002 0.002458 -0.000000 0.000000 0.000019
30 0.000000 -0.000019 0.000002 0.002458 -0.000000 0.000000 0.000019
31 0.000000 -0.000019 0.000002 0.002458 -0.000000 0.000000 0.000019
32 0.000000 -0.000019 0.000002 0.002458 -0.000000 0.000000 0.000019
33 0.000000 -0.000019 0.000002 0.002458 -0.000000 0.000000 0.000019
[weapon]
29 10.182571 -168.977966 -13.084183 -0.002473 -0.000000 -0.000020 169.789368
30 10.182495 -168.977936 -13.084183 -0.002473 -0.000000 -0.000020 169.789337
31 10.182533 -168.977936 -13.084259 -0.002473 -0.000000 -0.000020 169.789352
32 10.182495 -168.977905 -13.084259 -0.002473 -0.000000 -0.000020 169.789307
33 10.182533 -168.977905 -13.084183 -0.002473 -0.000000 -0.000020 169.789307
[arm_lock_bottom_part1]
29 -48.820034 98.566185 -83.498901 179.998215 -0.001518 9.389182 138.096909
30 -48.820034 98.566185 -83.498901 179.998215 -0.001518 9.389182 138.096909
31 -48.820034 98.566185 -83.498901 179.999130 -13.435623 9.389385 138.096909
32 -48.820034 98.566185 -83.498901 -179.998703 -38.379452 9.390669 138.096909
33 -48.820034 98.566185 -83.498901 -179.997589 -51.814346 9.385672 138.096909
[arm_lock_bottom_part2]
29 -49.022778 58.781982 -78.526520 179.998245 -0.001562 6.578084 109.658417
30 -49.022778 58.781982 -78.526520 179.998245 -0.001562 6.578084 109.658417
31 -49.022778 58.781982 -78.526520 -179.998688 -15.425016 6.578033 109.658417
32 -49.022778 58.781982 -78.526520 179.999359 -44.069458 6.578881 109.658417
33 -49.022778 58.781982 -78.526520 179.999893 -59.493954 6.579130 109.658417
[arm_lock_bottom_part3]
29 -51.266434 -16.798199 -66.920387 179.998291 -0.001596 4.325218 85.957924
30 -51.266434 -16.798199 -66.920387 179.998291 -0.001596 4.325218 85.957924
31 -51.266434 -16.798199 -66.920387 -179.999390 -19.160152 4.326081 85.957924
32 -51.266434 -16.798199 -66.920387 179.997528 -54.750355 4.326007 85.957924
33 -51.266434 -16.798199 -66.920387 -179.995651 -73.908356 4.319704 85.957924
[arm_lock_bottom_part4]
29 -40.078083 -93.503029 -59.330029 179.998322 -0.001640 1.322190 117.767235
30 -40.078083 -93.503029 -59.330029 179.998322 -0.001640 1.322190 117.767235
31 -40.078083 -93.503029 -59.330029 -179.999374 -20.890457 1.324234 117.767235
32 -40.078083 -93.503029 -59.330029 179.994781 -59.681034 1.327713 117.767235
33 -40.078083 -93.503029 -59.330029 179.987808 -80.568871 1.335122 117.767235
[arm_lock_top_part1]
29 -47.532562 61.554470 78.379471 0.001509 0.001798 -10.001317 110.415756
30 -47.532562 61.554470 78.379471 0.001509 0.001798 -10.001317 110.415756
31 -47.532562 61.554470 78.379471 -0.001233 20.919128 -9.999327 110.415756
32 -47.532562 61.554470 78.379471 0.002720 59.767624 -9.997112 110.415756
33 -47.532562 61.554470 78.379471 0.010751 80.686218 -9.987710 110.415756
[arm_lock_top_part2]
29 -45.622692 13.709888 63.393517 0.001544 0.001768 -7.724405 79.297722
30 -45.622692 13.709888 63.393517 0.001544 0.001768 -7.724405 79.297722
31 -45.622692 13.709888 63.393517 0.001789 28.346239 -7.721424 79.297722
32 -45.622692 13.709888 63.393517 0.002071 80.985634 -7.721314 79.297722
33 -45.622692 13.709888 63.393517 -179.992584 70.671555 172.285812 79.297722
[arm_lock_top_part3]
29 -43.788521 -73.747162 72.061607 0.001593 0.001724 -4.534721 112.022110
30 -43.788521 -73.747162 72.061607 0.001593 0.001724 -4.534721 112.022110
31 -43.788521 -73.747162 72.061607 -0.001409 29.550203 -4.531561 112.022110
32 -43.788521 -73.747162 72.061607 -0.011664 84.425003 -4.543493 112.022110
33 -43.788521 -73.747162 72.061607 -179.995102 66.023216 175.470490 112.022110
[front_lower_left_part1]
29 -46.798580 475.070923 -43.538815 0.000000 0.000003 -0.000000 479.351746
30 -46.798580 475.070923 -43.538815 0.000000 0.000003 -0.000000 479.351746
31 -46.798580 475.070923 -43.538815 0.000000 0.000003 -0.000000 479.351746
32 -46.798580 475.070923 -43.538815 0.000000 0.000003 -0.000000 479.351746
33 -46.798580 475.070923 -43.538815 0.000000 0.000003 -0.000000 479.351746
[front_lower_right_part1]
29 26.433397 475.070923 -43.538826 0.000000 -0.000000 -0.000000 477.793640
30 26.433397 475.070923 -43.538826 0.000000 -0.000000 -0.000000 477.793640
31 26.433397 475.070923 -43.538826 0.000000 -0.000000 -0.000000 477.793640
32 26.433397 475.070923 -43.538826 0.000000 -0.000000 -0.000000 477.793640
33 26.433397 475.070923 -43.538826 0.000000 -0.000000 -0.000000 477.793640
[front_top_left_part]
29 -47.897255 494.788696 7.031011 -0.000000 0.000003 -0.000001 497.151367
30 -47.897255 494.788696 7.031011 -0.000000 0.000003 -0.000001 497.151367
31 -47.897255 494.788696 7.031011 -0.000000 0.000003 -0.000001 497.151367
32 -47.897255 494.788696 7.031011 -0.000000 0.000003 -0.000001 497.151367
33 -47.897255 494.788696 7.031011 -0.000000 0.000003 -0.000001 497.151367
[front_top_right_part1]
29 27.532097 494.788727 7.031008 0.000000 -0.000000 -0.000000 495.604004
30 27.532097 494.788727 7.031008 0.000000 -0.000000 -0.000000 495.604004
31 27.532097 494.788727 7.031008 0.000000 -0.000000 -0.000000 495.604004
32 27.532097 494.788727 7.031008 0.000000 -0.000000 -0.000000 495.604004
33 27.532097 494.788727 7.031008 0.000000 -0.000000 -0.000000 495.604004
[scope_part1]
29 -10.754304 87.338959 156.453140 -4.905956 0.001729 0.001587 179.503021
30 -10.754304 87.338959 156.453140 -4.905956 0.001729 0.001587 179.503021
31 -10.754304 87.338959 156.453140 -4.906201 0.504668 -0.044707 179.503021
32 -10.754304 87.338959 156.453140 -4.909400 1.915390 -0.164625 179.503021
33 -10.754304 87.338959 156.453140 -4.916773 4.096121 -0.352593 179.503021
[scope_part2]
29 -10.754300 82.597374 156.860001 -4.905956 0.001729 0.001587 177.603607
30 -10.754300 82.597374 156.860001 -4.905956 0.001729 0.001587 177.603607
31 -10.754300 82.597374 156.860001 -4.906489 0.751308 -0.065182 177.603607
32 -10.754300 82.597374 156.860001 -4.908666 2.862608 -0.244854 177.603607
33 -10.754300 82.597374 156.860001 -4.931028 6.105556 -0.524215 177.603607
[front_lower_left_part2]
29 -55.193569 141.618454 32.268322 0.001660 0.001660 0.001660 155.381348
30 -55.193569 141.618454 32.268322 0.001660 0.001660 0.001660 155.381348
31 -55.193569 141.618454 32.268322 0.001698 0.001621 2.642889 155.381348
32 -55.193569 141.618454 32.268322 0.001778 0.001533 8.461538 155.381348
33 -55.193569 141.618454 32.268322 0.001853 0.001441 14.282180 155.381348
[front_lower_left_part3]
29 -10.943815 108.509422 -11.124855 33.348259 -16.022978 -13.460472 109.625839
30 -10.943815 108.509422 -11.124855 33.348259 -16.022978 -13.460472 109.625839
31 -10.943815 108.509422 -11.124855 31.825705 -19.106388 -8.414933 109.625839
32 -10.943815 108.509422 -11.124855 27.340302 -25.335505 3.392291 109.625839
33 -10.943815 108.509422 -11.124855 21.237413 -30.530359 16.363810 109.625839
[front_lower_right_part2]
29 55.193596 141.618317 32.268330 0.001660 0.001660 0.001660 155.381226
30 55.193596 141.618317 32.268330 0.001660 0.001660 0.001660 155.381226
31 55.193596 141.618317 32.268330 0.001633 0.001686 -1.848104 155.381226
32 55.193596 141.618317 32.268330 0.001572 0.001743 -5.911063 155.381226
33 55.193596 141.618317 32.268330 0.001509 0.001798 -9.976497 155.381226
[front_lower_right_part3]
29 10.943837 108.509453 -11.124846 33.349384 16.025185 13.464869 109.625862
30 10.943837 108.509453 -11.124846 33.349384 16.025185 13.464869 109.625862
31 10.943837 108.509453 -11.124846 32.344261 18.134699 10.042952 109.625862
32 10.943837 108.509453 -11.124846 29.619453 22.550510 2.217561 109.625862
33 10.943837 108.509453 -11.124846 26.155081 26.565712 -6.105802 109.625862
[front_top_left_part2]
29 -42.569160 137.488022 54.839325 0.000000 0.000000 -0.000020 154.020905
30 -42.569160 137.488022 54.839325 0.000000 0.000000 -0.000020 154.020905
31 -46.637455 136.734818 55.007324 1.731173 -0.000016 2.144728 154.587402
32 -55.587917 135.077911 55.377007 5.539878 0.000043 6.863141 156.213547
33 -64.538345 133.421005 55.746689 9.348548 0.000027 11.581525 158.347885
[front_top_left_part3]
29 -28.216480 149.656799 49.959614 -25.846500 -3.899320 -66.531914 160.278793
30 -28.216480 149.656799 49.959614 -25.846500 -3.899320 -66.531914 160.278793
31 -28.216480 149.656799 49.959614 -25.686470 -4.926162 -68.663971 160.278793
32 -28.216480 149.656799 49.959614 -25.187746 -7.157496 -73.370338 160.278793
33 -28.216480 149.656799 49.959614 -24.504490 -9.338731 -78.130333 160.278793
[front_top_right_part2]
29 42.569012 137.488052 54.839466 0.001660 0.001660 0.001660 154.020950
30 42.569008 137.488052 54.839478 0.001660 0.001660 0.001660 154.020950
31 45.693550 135.434296 55.436935 2.197155 -0.165067 -2.658064 153.308853
32 52.567608 130.916245 56.751366 7.038363 -0.532848 -8.502106 152.062927
33 59.441643 126.398193 58.065796 11.874147 -0.894327 -14.344439 151.266159
[front_top_right_part3]
29 28.216452 149.656952 49.959507 -25.844738 3.901540 66.529228 160.278885
30 28.216452 149.656952 49.959507 -25.844738 3.901540 66.529228 160.278885
31 28.216452 149.656952 49.959507 -25.726042 4.664540 68.113541 160.278885
32 28.216452 149.656952 49.959507 -25.393906 6.329302 71.609779 160.278885
33 28.216452 149.656952 49.959507 -24.958694 7.970715 75.128372 160.278885
